# xmcd CD database file
#
# Track frame offsets:
#	150
#	11976
#	22439
#	36524
#	50057
#	62260
#	74124
#	85637
#	98741
#	112435
#	124627
#	135892
#	150116
#	162197
#	174914
#	188154
#	201112
#	212550
#
# Disc length: 3010 seconds
#
# Revision: 0
# Processed by: cddbd v1.5.1PL0 Copyright (c) Steve Scherf et al.
# Submitted via: CDex 1.51
#
DISCID=f90bc012
DTITLE=Ray Charles - The Midnight Hour
DYEAR=2005
DGENRE=Blues
TTITLE0=CC Rider (See What You Have Donw)
TTITLE1=I Wonder Who's Kissing Her Now
TTITLE2=Kissa Me Baby
TTITLE3=The Midnight Hour
TTITLE4=Honey Honey
TTITLE5=The Sun's Gonna Shine
TTITLE6=Tell Me Baby (What Have I Done)
TTITLE7=Baby Won't You Please Come Home
TTITLE8=This Love Of Mine
TTITLE9=I Love You I Love You (I Will Never Let You Go)
TTITLE10=Confession Blues
TTITLE11=Walkin' and Talkin' (To Myself)
TTITLE12=Mess Around
TTITLE13=I'm Just A Lonely Boy
TTITLE14=Alone In This City
TTITLE15=Snowfall - I Used To Be So Happy
TTITLE16=Let's Have A Ball
TTITLE17=Don't You Know?
EXTD=YEAR: 2005
EXTT0=
EXTT1=
EXTT2=
EXTT3=
EXTT4=
EXTT5=
EXTT6=
EXTT7=
EXTT8=
EXTT9=
EXTT10=
EXTT11=
EXTT12=
EXTT13=
EXTT14=
EXTT15=
EXTT16=
EXTT17=
PLAYORDER=
